<svg width="26" height="26" viewBox="0 0 26 26" fill="none" xmlns="http://www.w3.org/2000/svg">
<path d="M26 13C26 20.1797 20.1797 26 13 26C5.8203 26 0 20.1797 0 13C0 5.8203 5.8203 0 13 0C20.1797 0 26 5.8203 26 13ZM1.04 13C1.04 19.6053 6.39467 24.96 13 24.96C19.6053 24.96 24.96 19.6053 24.96 13C24.96 6.39467 19.6053 1.04 13 1.04C6.39467 1.04 1.04 6.39467 1.04 13Z" fill="#36588A"/>
<path d="M25 13C25 19.6274 19.6274 25 13 25C6.37258 25 1 19.6274 1 13C1 6.37258 6.37258 1 13 1C19.6274 1 25 6.37258 25 13Z" fill="#6395DF"/>
</svg>
